PathFileType	4	(X/Y/Z)	15_coords_data.trc
DataRate	CameraRate	NumFrames	NumMarkers	Units	OrigDataRate	OrigDataStartFrame	OrigNumFrames
30.0	30.0	5	21	m	30.0	59	68
Frame#	Time	THUMB_TIP	THUMB_IP	THUMB_MCP	THUMB_CMC	INDEX_TIP	INDEX_DIP	INDEX_PIP	INDEX_MCP	MIDDLE_TIP	MIDDLE_DIP	MIDDLE_PIP	MIDDLE_MCP	RING_TIP	RING_DIP	RING_PIP	RING_MCP	PINKY_TIP	PINKY_DIP	PINKY_PIP	PINKY_MCP	WRIST
X1	Y1	Z1	X2	Y2	Z2	X3	Y3	Z3	X4	Y4	Z4	X5	Y5	Z5	X6	Y6	Z6	X7	Y7	Z7	X8	Y8	Z8	X9	Y9	Z9	X10	Y10	Z10	X11	Y11	Z11	X12	Y12	Z12	X13	Y13	Z13	X14	Y14	Z14	X15	Y15	Z15	X16	Y16	Z16	X17	Y17	Z17	X18	Y18	Z18	X19	Y19	Z19	X20	Y20	Z20	X21	Y21	Z21
57	1.9333333333333247	0.4616022390331713	0.05850253036733022	-0.14179483836206505	0.4626464544082529	0.03957267736041903	-0.12881137659768255	0.4521190484704224	0.019107527979274508	-0.10785496027648	0.4608886772401749	-0.013844675829853048	-0.07909499025976313	0.5512310642587849	0.07526229420959851	-0.15113013277942117	0.5390000373443369	0.07107994959197661	-0.13844510325176546	0.5217779712558139	0.06266390381082354	-0.12217917425732797	0.4940732602078639	0.03733975848169535	-0.10206020949522382	0.5845780374968	0.06288402028469009	-0.13454969013445794	0.5706489255869106	0.05791777702964729	-0.12409424804272798	0.5478509749602085	0.049552065628552966	-0.10797972446999843	0.5129797175576015	0.028897770981968107	-0.08917697358580096	0.588604980720036	0.036505726894114354	-0.13167054404929796	0.5767633811646018	0.033557938402933196	-0.11840076398405192	0.5592115736047922	0.028430867128136583	-0.10149434004146221	0.5264388762909715	0.013232597969195625	-0.08333714424064864	0.5873062837099843	-0.018430018237242995	-0.12241993158059816	0.575625348436234	-0.01541554044840443	-0.11027626348602904	0.5602208377713527	-0.011616603954747506	-0.09652558525938448	0.530033880096752	-0.007760694281217839	-0.07716678886235978	0.462283081001861	-0.023011742144276925	-0.05198982011943096
58	1.966666666666658	0.46298649391875524	0.0585024223146009	-0.14173837287582733	0.46367658286527047	0.03962487550116278	-0.12865548315098613	0.4526919733914644	0.019236051248014086	-0.1078599499699833	0.4610688896387428	-0.013811627424820783	-0.07909246470409417	0.5516458198372969	0.07390319010200341	-0.15126986191789576	0.5395296587394673	0.07036220731821241	-0.1382829422994358	0.5222869592296833	0.06260621592055038	-0.12171358069270272	0.49428459503531075	0.03759270533030046	-0.10161810902674787	0.5847653315372243	0.06259333459437577	-0.13431462443005998	0.5708419660894682	0.057761682618641785	-0.12378870243749251	0.5480517055847977	0.049599686927200626	-0.10755924149566967	0.5131271895805671	0.029109939256709128	-0.08867548277898854	0.5886847448698596	0.036857863181741446	-0.13110732260914626	0.5768552383791397	0.03390617836846388	-0.11782762634194643	0.5593173819979563	0.028769972229491292	-0.10090950117835415	0.5265677181642692	0.01346075804640201	-0.08280402372326384	0.5873773777006964	-0.017566448001925528	-0.12202873779234702	0.5757941880515607	-0.014609382413273586	-0.10977779984227284	0.5604458590092781	-0.010932353876248246	-0.0959314907402874	0.5301845637379974	-0.0075173016076868215	-0.0766059926223252	0.462283081001861	-0.023011742144276925	-0.051989820119430985
60	2.000000000000001	0.46441607982185573	0.05879909788201054	-0.14134183649492987	0.46477017061157755	0.03990051132839256	-0.1282759248930533	0.45332602288684476	0.019476800009080364	-0.10776437939302114	0.4612585490652399	-0.013752375661936544	-0.07908011693686279	0.5521085429814653	0.07266666866713822	-0.15129399566672064	0.5400787757263228	0.06967594287071799	-0.13809019852356033	0.5228069276913054	0.0624899620281858	-0.12129571199416542	0.49450483849572	0.03784486134598253	-0.10116496800569841	0.5849677588585152	0.06229605966487195	-0.1340436297401294	0.5710483397220508	0.05760332891918707	-0.12344985566985894	0.5482649622095718	0.04964163165199087	-0.10711159885496652	0.5132790380760752	0.02932561905504072	-0.08815394431423271	0.5887776751735653	0.03725679643211521	-0.13049760566248592	0.5769569093355654	0.03428185297396569	-0.11721531646129812	0.5594247476457188	0.029117916576477998	-0.10029973056060362	0.5266921258388798	0.01369850622886315	-0.08225705647436204	0.587396138790956	-0.016691260500325322	-0.12167889240803281	0.5759251769225306	-0.013797782864226948	-0.10930776388301428	0.5606499495119394	-0.010241946618404607	-0.09534941601703745	0.5303303140842455	-0.007272513781045653	-0.07604175880141081	0.462283081001861	-0.023011742144276925	-0.051989820119430985
61	2.033333333333334	0.46568629614321155	0.05917716369065795	-0.14083771110770307	0.4657501947809609	0.040230495796882204	-0.1278369537187253	0.4538993395076416	0.01973407451196274	-0.10763116386032223	0.4614252501485516	-0.013690600675067222	-0.07906471925014041	0.5525002451756966	0.07165271163546472	-0.15123101733686412	0.5405472920241429	0.06912235417064849	-0.137862240202922	0.5232524630128476	0.06241298883136026	-0.12089512084770984	0.4946935393058407	0.03808453078878893	-0.10074195484412093	0.5851374796824308	0.06205119978371021	-0.13377346887543662	0.5712244144338684	0.05748565985077847	-0.1231159616382797	0.5484489924764117	0.04970395953266282	-0.10668018222813794	0.5134100388130114	0.029531283952915377	-0.08766748102267141	0.58886186356313	0.037642405848688276	-0.12991603993739032	0.5770496586882724	0.034643204300992436	-0.11663159015312402	0.5595215838987674	0.029449918053099267	-0.09972075483605689	0.5267983750791332	0.013923280783763259	-0.08175311799497276	0.5873914367891501	-0.015906400314575575	-0.12136810213394947	0.5760259430411007	-0.013069232207708281	-0.10888707537344527	0.560822645739173	-0.009620416131806309	-0.09482373872015429	0.5304564534588211	-0.00704936273900314	-0.07553209540383582	0.4622830810018609	-0.023011742144276925	-0.05198982011943101
62	2.0666666666666678	0.4667160065713053	0.059601848292618276	-0.14027563795570608	0.46655334984934194	0.04058538596556083	-0.12737805278039505	0.454371538061096	0.0199872248657611	-0.10747480628987349	0.4615572705160581	-0.01363071293116258	-0.07904789109726296	0.5527999640235746	0.07091095650936086	-0.15110274239595467	0.5409085753889754	0.06873384087269563	-0.1376173783354068	0.52359583989286	0.062391061901325595	-0.12052796121363551	0.49483655821634387	0.03830339496153745	-0.10037047841322999	0.5852583443025643	0.06186720076297114	-0.1335301506835164	0.5713563012169143	0.05741430088373767	-0.12281078126595035	0.5485910218319308	0.04978898122200803	-0.10628788489212743	0.5135110448541214	0.02972114197806408	-0.08723992005817247	0.588927120702438	0.03798747209430153	-0.12939933416263527	0.5771260732179635	0.03496981451296843	-0.11610914902506095	0.5596033704315386	0.029752229688718712	-0.0992002260948332	0.5268810889077685	0.014128137856709744	-0.081315571211272	0.587367790701568	-0.015255572760273672	-0.12111112545152392	0.576095267143375	-0.012462144783470408	-0.10853627067031882	0.5609585747418538	-0.009099277926621574	-0.09438057610435563	0.5305583768492982	-0.006856879813712635	-0.07510149236584035	0.462283081001861	-0.023011742144276925	-0.051989820119430985
